<?xml version="1.0" encoding="UTF-8" standalone="no"?>
<!DOCTYPE svg PUBLIC "-//W3C//DTD SVG 20010904//EN"
              "http://www.w3.org/TR/2001/REC-SVG-20010904/DTD/svg10.dtd">

<svg xmlns="http://www.w3.org/2000/svg"
     width="86.6988mm" height="86.6988mm"
     viewBox="0 0 1024 1024">
  <path id="Selection"
        fill="white"
        d="M 619.00,270.53
           C 622.79,269.91 631.86,269.62 634.18,273.43
             637.02,278.10 627.55,283.47 624.00,284.32
             612.63,287.02 607.68,277.77 614.15,272.70
             615.74,271.45 617.15,271.12 619.00,270.53 Z
           M 665.00,277.57
           C 668.45,276.95 673.83,276.57 676.35,279.65
             679.83,283.91 672.34,288.22 669.00,289.02
             659.77,291.24 654.67,281.76 665.00,277.57 Z
           M 485.00,532.00
           C 485.56,525.31 488.90,512.93 490.63,506.00
             491.24,503.54 493.39,496.21 492.94,494.10
             492.01,489.70 486.22,489.76 480.33,482.96
             472.57,474.01 472.19,462.95 474.90,452.00
             479.43,433.69 494.00,414.73 509.00,403.76
             512.19,401.42 515.31,399.50 519.00,398.07
             521.51,397.09 525.47,396.29 527.30,394.44
             528.64,393.10 533.02,383.45 534.25,381.00
             534.25,381.00 547.81,357.00 547.81,357.00
             563.80,330.95 584.32,308.36 612.00,294.76
             621.94,289.87 632.03,287.18 643.00,285.98
             647.48,285.45 650.65,284.28 655.00,285.98
             642.03,289.76 633.35,291.93 621.00,298.26
             591.97,313.14 568.03,339.29 551.40,367.00
             548.19,372.34 537.53,390.97 535.93,396.00
             534.52,400.42 536.92,403.10 538.69,407.00
             540.79,411.66 542.87,418.95 543.72,424.00
             547.19,444.78 546.03,482.20 524.00,492.67
             515.27,496.82 510.70,495.19 502.00,495.00
             502.00,495.00 496.60,521.00 496.60,521.00
             496.05,523.77 494.46,530.49 495.03,533.00
             495.74,536.20 500.18,540.32 502.39,543.00
             507.48,549.19 510.94,554.09 514.99,561.00
             524.84,577.84 529.31,594.79 531.17,614.00
             531.17,614.00 531.92,621.00 531.92,621.00
             531.92,621.00 530.83,632.00 530.83,632.00
             529.18,646.77 522.04,660.79 509.00,668.53
             503.47,671.81 495.40,674.19 489.00,674.83
             485.84,675.15 481.01,674.33 479.02,677.31
             477.42,679.72 478.04,689.67 478.00,693.00
             478.00,693.00 477.00,706.00 477.00,706.00
             477.00,706.00 477.00,723.00 477.00,723.00
             477.02,734.00 478.91,731.36 488.00,740.04
             493.49,745.28 496.66,748.75 500.98,755.00
             514.22,774.18 522.27,797.62 522.00,821.00
             521.80,837.38 515.67,852.35 502.00,861.96
             497.65,865.01 494.07,866.60 489.00,868.09
             486.26,868.90 485.49,868.94 481.01,869.17
             481.20,876.11 481.26,876.53 481.57,882.66
             481.57,882.66 481.87,891.00 481.87,891.00
             481.87,891.00 483.91,907.00 483.91,907.00
             485.57,929.72 488.81,952.53 492.59,975.00
             495.22,990.67 497.69,1007.23 506.00,1021.00
             506.00,1021.00 482.00,1019.58 482.00,1019.58
             479.26,1019.20 475.56,1018.94 473.33,1017.26
             470.27,1014.96 468.85,1010.49 467.67,1007.00
             464.80,998.50 463.20,989.81 461.61,981.00
             461.61,981.00 456.00,926.00 456.00,926.00
             456.00,926.00 455.00,907.00 455.00,907.00
             455.00,907.00 454.00,870.00 454.00,870.00
             447.61,869.70 440.79,867.94 435.00,865.22
             391.97,845.04 405.59,787.16 427.44,756.00
             432.27,749.10 438.37,741.73 445.00,736.52
             448.41,733.83 455.88,730.42 457.42,726.90
             459.02,723.20 458.78,715.08 459.17,711.00
             459.17,711.00 463.00,673.00 463.00,673.00
             456.56,672.09 450.77,670.23 445.00,667.22
             440.98,665.11 436.29,662.11 433.09,658.91
             409.37,635.19 424.54,593.69 440.33,570.00
             444.90,563.15 446.36,561.20 451.85,555.00
             460.00,545.78 472.52,534.34 485.00,532.00 Z
           M 590.00,289.00
           C 589.24,296.16 584.50,304.94 577.99,308.43
             574.53,310.28 568.70,310.88 565.89,307.57
             562.47,303.54 564.75,297.68 568.21,294.53
             574.13,289.13 582.40,287.66 590.00,289.00 Z
           M 655.00,298.00
           C 654.26,301.11 653.68,303.35 651.58,305.91
             650.10,307.72 648.05,309.32 646.00,310.44
             634.43,316.81 630.05,306.54 633.18,301.21
             635.51,297.23 642.73,295.86 647.00,296.18
             649.76,296.39 652.39,297.14 655.00,298.00 Z
           M 622.00,314.00
           C 621.99,322.40 621.10,329.60 613.83,335.20
             610.62,337.67 604.77,339.31 601.23,336.40
             597.80,333.44 598.93,327.46 601.23,324.09
             605.60,317.31 614.28,314.36 622.00,314.00 Z
           M 547.00,323.00
           C 546.99,336.93 541.42,352.03 530.83,361.53
             522.83,368.71 508.70,369.37 507.20,356.00
             506.51,349.79 510.25,343.49 514.18,339.00
             523.03,328.91 533.50,323.04 547.00,323.00 Z
           M 588.98,349.66
           C 595.17,349.39 594.10,354.12 593.99,359.00
             593.70,370.81 587.44,393.82 574.00,396.43
             564.36,398.30 558.66,389.70 559.04,381.00
             559.66,366.69 576.19,353.52 588.98,349.66 Z
           M 465.00,474.00
           C 457.58,469.93 454.11,462.59 451.01,455.00
             444.09,438.02 442.94,415.91 446.08,398.00
             447.43,390.35 450.09,381.53 456.04,376.21
             458.25,374.24 461.83,371.81 464.96,372.70
             468.94,373.84 470.84,379.52 472.19,383.00
             472.19,383.00 480.37,409.00 480.37,409.00
             481.06,411.69 482.86,417.47 482.23,420.00
             482.23,420.00 472.31,438.00 472.31,438.00
             466.93,449.94 465.00,461.03 465.00,474.00 Z
           M 539.00,497.00
           C 539.00,497.00 543.51,488.00 543.51,488.00
             545.90,482.96 548.26,475.46 549.63,470.00
             549.63,470.00 553.31,445.01 553.31,445.01
             554.37,440.91 558.75,438.28 562.00,435.88
             568.98,430.74 580.94,422.98 589.00,420.09
             593.48,418.48 599.83,416.44 603.15,421.15
             608.23,428.36 601.96,443.27 598.13,450.00
             590.12,464.04 577.22,478.03 564.00,487.28
             556.26,492.70 548.62,496.78 539.00,497.00 Z
           M 429.00,566.00
           C 424.00,561.01 406.17,545.33 403.64,541.00
             401.30,536.99 403.87,532.62 405.86,529.00
             409.99,521.51 420.70,505.79 430.00,505.32
             439.59,504.83 449.53,522.41 453.11,530.00
             454.23,532.36 456.74,537.49 456.19,540.00
             455.49,543.17 451.33,546.05 449.00,548.17
             441.37,555.08 438.12,559.67 429.00,566.00 Z
           M 533.00,581.00
           C 533.00,581.00 518.74,551.00 518.74,551.00
             517.95,546.41 522.08,542.93 525.00,540.00
             531.29,533.71 545.37,523.09 555.00,526.74
             564.77,530.44 568.76,547.61 568.99,557.00
             569.06,560.13 569.38,565.02 567.26,567.50
             565.56,569.51 560.54,571.18 558.00,572.20
             551.73,574.71 539.09,580.04 533.00,581.00 Z
           M 417.00,657.00
           C 401.66,651.64 389.04,640.29 378.75,628.00
             360.90,606.66 346.96,581.38 347.00,553.00
             347.01,548.96 346.93,547.02 347.90,543.00
             348.68,539.74 350.10,534.71 352.42,532.28
             356.68,527.78 362.78,529.08 368.00,530.75
             378.25,534.02 390.50,542.19 399.00,548.79
             399.00,548.79 408.00,555.92 408.00,555.92
             411.68,558.98 424.36,569.88 425.18,574.00
             425.77,576.98 422.90,580.54 421.45,583.00
             418.32,588.31 415.47,595.04 413.66,601.00
             409.90,615.92 408.87,633.08 413.66,648.00
             413.66,648.00 417.00,657.00 417.00,657.00 Z
           M 530.00,669.00
           C 530.00,669.00 536.02,660.00 536.02,660.00
             540.35,651.71 542.60,636.40 542.96,627.00
             543.20,620.96 541.34,608.03 539.87,602.00
             539.10,598.86 536.74,593.16 538.69,590.39
             541.06,587.02 557.44,580.73 562.00,579.05
             576.06,573.90 597.13,568.60 612.00,570.73
             617.18,571.47 625.93,572.55 629.07,577.21
             631.55,580.90 631.05,589.51 631.00,594.00
             630.80,610.30 620.26,624.22 608.00,634.00
             584.13,653.03 558.62,660.70 530.00,669.00 Z
           M 415.00,760.00
           C 408.31,758.05 395.52,749.23 389.00,745.19
             386.46,743.62 380.39,740.23 379.04,737.79
             377.24,734.55 379.57,729.27 380.67,726.00
             383.94,716.27 392.51,698.97 404.00,697.71
             416.34,696.36 427.20,714.23 430.94,724.00
             432.51,728.11 434.72,732.80 432.48,737.00
             432.48,737.00 415.00,760.00 415.00,760.00 Z
           M 536.00,705.88
           C 548.66,708.58 556.12,725.38 558.25,737.00
             558.56,739.86 559.66,746.00 558.25,748.61
             557.20,751.22 552.56,752.57 550.00,753.60
             550.00,753.60 529.00,761.80 529.00,761.80
             526.74,762.70 521.31,765.22 519.09,764.88
             515.25,764.28 510.77,755.24 508.66,752.00
             506.83,749.20 502.99,744.17 502.60,741.00
             502.17,737.48 505.16,732.14 506.76,729.00
             512.39,717.89 522.87,706.88 536.00,705.88 Z
           M 404.00,853.00
           C 393.37,850.13 383.70,843.44 375.00,836.87
             356.63,822.98 335.79,800.68 327.20,779.00
             327.20,779.00 324.04,770.00 324.04,770.00
             321.58,761.73 320.17,742.11 326.51,735.42
             329.30,732.47 334.15,731.87 338.00,732.09
             353.86,733.01 379.61,747.06 393.00,755.69
             396.26,757.79 407.41,764.71 408.18,768.17
             408.82,771.05 405.27,775.47 403.90,778.00
             401.38,782.65 398.52,790.78 397.45,796.00
             394.80,808.96 395.27,827.32 399.04,840.00
             399.04,840.00 404.00,853.00 404.00,853.00 Z
           M 521.00,774.00
           C 521.00,774.00 537.00,766.31 537.00,766.31
             551.49,759.67 577.12,750.42 593.00,751.04
             597.41,751.21 606.35,752.51 609.61,755.51
             613.81,759.36 615.18,769.50 614.96,775.00
             614.38,789.30 604.41,802.31 594.00,811.27
             574.97,827.65 544.41,844.64 521.00,854.00
             524.14,849.47 527.34,846.21 529.34,841.00
             535.97,825.72 534.57,804.41 529.34,789.00
             525.91,779.86 523.75,780.01 521.00,774.00 Z" />
</svg>
